<?xml version="1.0" standalone="no"?>
<!DOCTYPE svg PUBLIC "-//W3C//DTD SVG 20010904//EN"
 "http://www.w3.org/TR/2001/REC-SVG-20010904/DTD/svg10.dtd">
<svg version="1.0" xmlns="http://www.w3.org/2000/svg"
 width="255.000000pt" height="300.000000pt" viewBox="0 0 255.000000 300.000000"
 preserveAspectRatio="xMidYMid meet">
<metadata>
Created by potrace 1.10, written by Peter Selinger 2001-2011
</metadata>
<g transform="translate(0.000000,300.000000) scale(0.100000,-0.100000)"
fill="#f4f1ef" stroke="none">
<path d="M370 2749 c0 -46 35 -170 64 -227 64 -126 181 -237 321 -303 78 -37
219 -75 300 -80 54 -4 57 -7 35 -29 -28 -28 -13 -64 29 -68 25 -3 33 1 40 20
10 28 -3 58 -26 58 -35 0 -1 12 44 16 267 21 480 136 606 326 61 91 92 180 95
268 l1 55 -12 -67 c-15 -79 -82 -216 -132 -270 -99 -107 -248 -195 -390 -231
-118 -30 -329 -30 -444 2 -277 74 -490 289 -515 519 -5 45 -16 53 -16 11z
m760 -669 c0 -5 -4 -10 -9 -10 -6 0 -13 5 -16 10 -3 6 1 10 9 10 9 0 16 -4 16
-10z"/>
<path d="M1043 2005 c-14 -10 -53 -17 -110 -19 -48 -3 -101 -9 -116 -15 -16
-6 -37 -11 -47 -11 -10 0 -54 -17 -97 -37 -138 -67 -242 -185 -291 -333 -21
-62 -31 -160 -12 -115 5 11 9 31 9 45 1 14 17 58 36 98 65 137 224 263 379
299 91 21 191 24 224 7 15 -7 37 -14 49 -14 12 0 25 -4 28 -10 3 -6 -4 -10
-17 -10 -39 0 -147 -58 -233 -125 -136 -106 -240 -256 -291 -420 -26 -82 -29
-103 -29 -245 0 -148 2 -160 32 -255 42 -128 105 -227 220 -342 162 -164 346
-241 590 -247 l65 -2 -1 -114 c-1 -80 2 -110 9 -100 5 8 10 23 10 33 0 20 21
68 49 112 24 37 25 45 6 45 -14 0 -17 6 -14 28 1 6 49 20 129 38 92 20 237
111 336 210 128 130 200 258 230 414 64 328 -51 645 -306 843 -78 60 -192 122
-251 137 -19 4 -61 15 -94 24 -68 19 -269 23 -322 7 -33 -10 -33 -9 -33 24 0
24 -7 39 -22 49 -28 20 -87 20 -115 1z m107 -30 c7 -8 10 -22 6 -30 -8 -21
-99 -21 -116 0 -7 9 -11 17 -9 19 34 28 100 34 119 11z m15 -80 c-11 -9 -25
-22 -31 -30 -9 -13 -13 -13 -30 1 -16 13 -16 15 -2 10 10 -3 20 0 24 6 4 7 3
8 -4 4 -7 -4 -12 -3 -12 3 0 11 13 16 49 19 25 1 25 1 6 -13z m425 -39 c140
-45 239 -107 339 -211 104 -109 161 -212 197 -352 102 -403 -127 -816 -523
-943 -133 -43 -136 -43 -145 5 -9 48 -11 314 -3 405 10 120 13 210 8 227 -2
10 -19 25 -36 33 -38 18 -77 88 -77 137 0 28 5 35 38 49 51 23 155 22 222 -2
64 -23 139 -87 176 -152 21 -36 27 -61 28 -105 1 -64 11 -68 40 -17 15 26 19
49 17 108 -1 42 -5 80 -10 86 -4 6 -16 33 -25 59 -34 92 -123 179 -236 230
-90 40 -145 51 -260 52 -152 0 -213 -18 -285 -86 -49 -46 -53 -48 -67 -31 -26
29 -47 78 -54 123 -3 24 -8 55 -10 68 -7 51 34 113 148 224 130 127 132 127
313 123 98 -3 136 -8 205 -30z m-480 -16 c0 -5 -4 -10 -9 -10 -4 0 -40 -30
-78 -67 -78 -75 -117 -142 -128 -219 -7 -55 8 -162 30 -204 16 -31 86 -101
135 -135 41 -28 143 -58 177 -52 17 3 25 -3 34 -26 17 -40 101 -125 133 -133
34 -8 40 -44 32 -182 -3 -59 -6 -197 -6 -306 l0 -199 -107 6 c-261 12 -496
153 -641 382 -43 68 -87 196 -103 296 -24 155 14 360 93 498 71 124 193 239
337 318 79 43 101 50 101 33z m438 -446 c85 -33 196 -117 229 -172 24 -40 58
-131 51 -137 -2 -3 -19 16 -36 40 -35 50 -107 100 -162 115 -98 25 -230 13
-317 -29 -56 -28 -113 -27 -171 3 -48 25 -102 68 -102 84 0 15 64 70 110 92
72 37 89 40 210 36 99 -2 125 -7 188 -32z m-538 -94 c0 -5 -5 -10 -11 -10 -5
0 -7 5 -4 10 3 6 8 10 11 10 2 0 4 -4 4 -10z m306 -145 c-2 -7 1 -18 7 -24 6
-6 7 -11 3 -11 -5 0 -2 -8 5 -17 8 -9 9 -14 3 -10 -22 13 -54 75 -41 80 17 6
29 -3 23 -18z m530 -120 c3 -32 -12 -42 -20 -12 -3 12 -1 24 4 25 6 2 7 9 3
15 -3 7 -2 9 2 5 5 -5 9 -19 11 -33z m-380 -773 c-9 -8 -26 10 -26 26 1 15 2
15 15 -2 8 -11 13 -21 11 -24z m5 -55 c-10 -9 -11 -8 -5 6 3 10 9 15 12 12 3
-3 0 -11 -7 -18z"/>
</g>
</svg>
