<?xml version="1.0" standalone="no"?>
<!DOCTYPE svg PUBLIC "-//W3C//DTD SVG 20010904//EN"
 "http://www.w3.org/TR/2001/REC-SVG-20010904/DTD/svg10.dtd">
<svg version="1.0" xmlns="http://www.w3.org/2000/svg"
 width="260.000000pt" height="260.000000pt" viewBox="0 0 260.000000 260.000000"
 preserveAspectRatio="xMidYMid meet">
<metadata>
Created by potrace 1.14, written by Peter Selinger 2001-2017
</metadata>
<g transform="translate(0.000000,260.000000) scale(0.100000,-0.100000)"
fill="#000000" stroke="none">
<path d="M33 2590 c-12 -5 -25 -19 -28 -32 -3 -13 -4 -587 -3 -1276 3 -1231 3
-1254 23 -1268 16 -12 200 -14 1283 -12 1241 3 1264 3 1278 23 12 16 14 200
12 1283 -3 1238 -3 1264 -22 1278 -17 12 -205 14 -1270 13 -710 0 -1261 -4
-1273 -9z"/>
</g>
</svg>
